<svg xmlns="http://www.w3.org/2000/svg" xmlns:v="https://vecta.io/nano"><path d="M230.857 317.714l86.857-86.857L288 201.143h-32V256h-54.857v32zm236.572 222.857c4.571-4 3.429-12-1.714-17.143L299.429 357.142c-5.143-5.143-13.143-6.286-17.143-1.714-4.571 4-3.429 12 1.714 17.143l166.286 166.286c5.143 5.143 13.143 6.286 17.143 1.714zM310.857 146.286l310.857 310.857-164.571 164.571-310.857-310.857V146.286h164.571zm347.429 347.428l52.571 52.571c21.143 21.143 21.143 56.571 0 77.714L624 710.856c-21.143 21.143-56.571 21.143-77.714 0l-52.571-52.571zm219.428 219.429V164.572C877.714 73.715 804 .001 713.143.001H164.572C73.715.001.001 73.715.001 164.572v548.571c0 90.857 73.714 164.571 164.571 164.571h548.571c90.857 0 164.571-73.714 164.571-164.571z"/></svg>