<svg xmlns="http://www.w3.org/2000/svg" xmlns:v="https://vecta.io/nano"><path d="M365.714 804.571h292.571v73.143H365.714v-73.143zM1024 438.857V164.571c0-50.286-41.143-91.429-91.429-91.429H91.428c-50.286 0-91.429 41.143-91.429 91.429v274.286h384v-91.429c0-20 16.571-36.571 36.571-36.571h182.857c20 0 36.571 16.571 36.571 36.571v91.429h384zm-438.857 0v-73.143H438.857v73.143h146.286zM1024 713.143V493.714H0v219.429c0 50.286 41.143 91.429 91.429 91.429h201.143v91.429c0 30.286 24.571 54.857 54.857 54.857h329.143c30.286 0 54.857-24.571 54.857-54.857v-91.429h201.143c50.286 0 91.429-41.143 91.429-91.429z"/></svg>