<svg xmlns="http://www.w3.org/2000/svg" xmlns:v="https://vecta.io/nano"><path d="M744.571 400L452 107.429a19.37 19.37 0 0 0-26.286 0L261.143 272c-6.857 7.429-6.857 18.857 0 25.714L287.429 324c6.857 6.857 18.286 6.857 25.714 0l125.714-125.714L692.571 452c7.429 6.857 18.857 6.857 25.714 0l26.286-26.286c6.857-6.857 6.857-18.286 0-25.714zM73.143 0h804.571v585.143H73.143V0zm219.428 694.857v164.571c0 10.286-8 18.286-18.286 18.286h-36.571c-10.286 0-18.286-8-18.286-18.286V694.857c0-10.286 8-18.286 18.286-18.286h36.571c10.286 0 18.286 8 18.286 18.286zm438.858 0v164.571c0 10.286-8 18.286-18.286 18.286h-36.571c-10.286 0-18.286-8-18.286-18.286V694.857c0-10.286 8-18.286 18.286-18.286h36.571c10.286 0 18.286 8 18.286 18.286zm219.428 36.571V-.001c0-40-33.143-73.143-73.143-73.143H73.143C33.143-73.144 0-40.001 0-.001v731.429c0 40 33.143 73.143 73.143 73.143h73.143v54.857c0 50.286 41.143 91.429 91.429 91.429h36.571c50.286 0 91.429-41.143 91.429-91.429v-54.857h219.429v54.857c0 50.286 41.143 91.429 91.429 91.429h36.571c50.286 0 91.429-41.143 91.429-91.429v-54.857h73.143c40 0 73.143-33.143 73.143-73.143z"/></svg>