<svg xmlns="http://www.w3.org/2000/svg" xmlns:v="https://vecta.io/nano"><path d="M731.429 420.571c0 10.286-8 18.286-18.286 18.286h-128V640c0 9.714-8.571 18.286-18.286 18.286H457.143c-9.714 0-18.286-8.571-18.286-18.286V438.857h-128c-10.286 0-18.286-8.571-18.286-18.286 0-4.571 1.714-9.714 5.143-13.143l201.143-201.143c3.429-3.429 8-5.143 13.143-5.143 4.571 0 9.714 1.714 13.143 5.143l200.571 200.571c3.429 4 5.714 8.571 5.714 13.714zm365.714-128c0-121.143-98.286-219.429-219.429-219.429H256c-141.143 0-256 114.857-256 256 0 99.429 57.714 189.714 147.429 231.429-.571 8.571-1.143 16.571-1.143 24.571 0 161.714 130.857 292.571 292.571 292.571 118.857 0 225.714-72 270.857-181.714 26.286 22.857 60 35.429 94.857 35.429 80.571 0 146.286-65.714 146.286-146.286 0-28-8-55.429-23.429-78.857 99.429-23.429 169.714-112 169.714-213.714z"/></svg>