<svg xmlns="http://www.w3.org/2000/svg" xmlns:v="https://vecta.io/nano"><path d="M804.571 512c0-161.714-180-292.571-402.286-292.571-34.857 0-68.571 3.429-100.571 9.143-47.429-33.714-101.143-58.286-158.857-73.143-15.429-4-32-6.857-49.143-9.143H92c-8.571 0-16.571 6.857-18.286 16.571h0c-2.286 10.857 5.143 17.714 11.429 25.143 22.286 25.143 47.429 47.429 66.857 94.857C59.429 336.571 0 419.428 0 512c0 161.714 180 292.571 402.286 292.571S804.572 673.714 804.572 512zM1024 365.714c0-93.143-59.429-175.429-152-229.143 19.429-47.429 44.571-69.714 66.857-94.857 6.286-7.429 13.714-14.286 11.429-25.143h0C948 6.285 939.429-1.143 930.286 0c-17.143 2.286-33.714 5.143-49.143 9.143C823.429 24 769.714 48.572 722.286 82.286c-32-5.714-65.714-9.143-100.571-9.143-103.429 0-198.286 28.571-269.714 75.429 16.571-1.143 33.714-2.286 50.286-2.286 122.857 0 238.857 35.429 327.429 99.429 95.429 69.714 148 164 148 266.286 0 29.714-4.571 58.857-13.143 86.857 96.571-53.143 159.429-137.714 159.429-233.143z"/></svg>