<svg xmlns="http://www.w3.org/2000/svg" xmlns:v="https://vecta.io/nano"><path d="M1024 577.143V18.286c0-50.286-41.143-91.429-91.429-91.429H91.428C41.142-73.143-.001-32-.001 18.286v558.857c0 5.143 2.286 10.286 6.286 13.714 60 52.571 60.571 58.857 358.857 276.571 36 26.286 99.429 83.429 146.857 83.429s111.429-57.714 146.857-83.429c298.286-217.714 298.857-224 358.857-276.571 4-3.429 6.286-8.571 6.286-13.714zM701.714 242.857l197.143 144c8 5.714 9.714 17.143 3.429 25.143l-21.714 29.714c-6.286 8-17.714 9.714-25.714 3.429l-196-142.857c-35.429-25.714-99.429-82.857-146.857-82.857s-111.429 57.143-146.857 82.857l-196 142.857c-8 6.286-19.429 4.571-25.714-3.429L121.716 412c-6.286-8-4.571-19.429 3.429-25.143l197.143-144c44.571-32 114.857-96.571 189.714-96.571 75.429 0 147.429 65.714 189.714 96.571z"/></svg>