<svg xmlns="http://www.w3.org/2000/svg" xmlns:v="https://vecta.io/nano"><path d="M1013.714 473.143L1024 292.572c4.571-80.571-164-146.286-365.714-146.286S288 212 292.572 292.572l10.286 180.571 328-103.429c9.143-2.857 18.286-4 27.429-4s18.286 1.143 27.429 4zm302.857 185.143c0-8-5.143-14.857-12.571-17.714L664 439.429c-2.286-.571-4-.571-5.714-.571s-3.429 0-5.714.571L280.001 557.143c-32.571-25.714-55.429-88.571-60-165.714 21.714-12.571 36-35.429 36-62.286 0-25.714-13.143-48-33.143-61.143l33.143-247.429c.571-5.143-1.143-10.286-4.571-14.286s-8.571-6.286-13.714-6.286H128.002c-5.143 0-10.286 2.286-13.714 6.286s-5.143 9.143-4.571 14.286L142.86 268c-20 13.143-33.143 35.429-33.143 61.143 0 27.429 15.429 50.857 37.143 63.429 3.429 66.857 20.571 138.857 56 188.571L12.574 640.572C5.145 643.429.003 650.286.003 658.286S5.146 673.143 12.574 676l640 201.143c2.286.571 4 .571 5.714.571s3.429 0 5.714-.571l640-201.143c7.429-2.857 12.571-9.714 12.571-17.714z"/></svg>