<svg xmlns="http://www.w3.org/2000/svg" xmlns:v="https://vecta.io/nano"><path d="M804.571 384V109.714c0-20-16.571-36.571-36.571-36.571H548.571v219.429H402.285V73.143H182.856c-20 0-36.571 16.571-36.571 36.571V384c0 1.143.571 2.286.571 3.429l328.571 270.857 328.571-270.857c.571-1.143.571-2.286.571-3.429zM932 423.428l-35.429-42.286c-2.857-3.429-7.429-5.714-12-6.286h-1.714c-4.571 0-8.571 1.143-12 4L475.428 708.57 79.999 378.856c-4-2.857-8.571-4.571-13.714-4-4.571.571-9.143 2.857-12 6.286l-35.429 42.286c-6.286 7.429-5.143 19.429 2.286 25.714l410.857 342.286c24 20 62.857 20 86.857 0l139.429-116.571v111.429c0 10.286 8 18.286 18.286 18.286h109.714c10.286 0 18.286-8 18.286-18.286V553.143l125.143-104c7.429-6.286 8.571-18.286 2.286-25.714z"/></svg>