<svg xmlns="http://www.w3.org/2000/svg" xmlns:v="https://vecta.io/nano"><path d="M199.429 593.714V27.428H10.858v566.286h188.571zm12 174.857c.571-54.286-40.571-97.714-106.286-97.714h0H104c-63.429 0-104 43.429-104 97.714C0 824 42.286 866.285 106.286 866.285c64.571 0 104.571-42.286 105.143-97.714zM877.714 352V27.429h-188v302.857c0 76-27.429 128-95.429 128-52 0-82.857-34.857-96.571-68.571-4.571-12.571-6.286-29.143-6.286-46.286v-316h-188v566.286h188v-82.286h-1.143c24.571 38.857 69.143 95.429 170.857 95.429 124 0 216.571-81.143 216.571-254.857z"/></svg>