<svg xmlns="http://www.w3.org/2000/svg" xmlns:v="https://vecta.io/nano"><path d="M1008 944.571c12-8.571 17.714-22.286 15.429-36.571L877.143 30.286c-1.714-10.857-8.571-20-18.286-25.714-5.143-2.857-11.429-4.571-17.714-4.571-4.571 0-9.143 1.143-13.714 2.857L568.572 108.572 430.286-59.999c-6.857-8.571-17.143-13.143-28-13.143-4 0-8.571.571-12.571 2.286-14.286 5.143-24 18.857-24 34.286v199.429l493.714 605.143-610.857-528.571-225.714 92.571C9.715 337.145 1.144 349.145.001 363.431c-.571 13.714 6.286 26.857 18.286 33.714l950.857 548.571c5.714 3.429 12 5.143 18.286 5.143 7.429 0 14.857-2.286 20.571-6.286z"/></svg>