<svg xmlns="http://www.w3.org/2000/svg" xmlns:v="https://vecta.io/nano"><path d="M873 811.2C777.2 907.2 649.8 960 514 960 234.4 960 6.8 732.4 6.8 452.6c0-89.4 23.4-176.8 67.8-253.6L2.6-64l269 70.6C345.8-33.8 429.2-55.2 514-55.2h.2c279.6 0 507.4 227.6 507.4 507.4 0 135.6-52.8 263-148.6 359zM514.2 30.4h0c-75.8 0-150 20.4-214.8 58.8L284 98.4 124.4 56.6 167 212.2l-10 16c-42.4 67-64.6 144.6-64.6 224.4 0 232.6 189.2 421.8 422 421.8 112.6 0 218.6-44 298.2-123.6C892.2 671 936 565.2 936 452.4c-.2-232.8-189.4-422-421.8-422zm231.2 316c-12.6 6.4-75 37-86.6 41.2s-20 6.4-28.6-6.4c-8.4-12.6-32.8-41.2-40.2-49.8-7.4-8.4-14.8-9.6-27.4-3.2s-53.6 19.8-102 63C423 424.8 397.4 466.4 390 479s-.8 19.6 5.6 25.8c5.8 5.6 12.6 14.8 19 22.2s8.4 12.6 12.6 21.2c4.2 8.4 2.2 15.8-1 22.2s-28.6 68.8-39 94.2c-10.2 24.8-20.8 21.4-28.6 21.8-7.4.4-15.8.4-24.2.4s-22.2-3.2-33.8-15.8-44.4-43.4-44.4-105.8S301.6 442.6 308 434c6.4-8.4 89.4-136.6 216.6-191.4 30.2-13 53.8-20.8 72.2-26.8 30.4-9.6 58-8.2 79.8-5 24.4 3.6 75 30.6 85.6 60.2s10.6 55 7.4 60.2c-3 5.6-11.4 8.8-24.2 15.2z"/></svg>