<svg xmlns="http://www.w3.org/2000/svg" xmlns:v="https://vecta.io/nano"><path d="M554.857 240V119.429c0-25.714-7.429-38.286-22.286-38.286-8.571 0-17.143 4-25.714 12.571v172c8.571 8.571 17.143 12.571 25.714 12.571 14.857 0 22.286-13.143 22.286-38.286zM748 239.428v-26.286h-51.429v26.286c0 25.714 8.571 38.857 25.714 38.857s25.714-13.143 25.714-38.857zM196 364h61.143v53.714H78.857V364h60V38.857H196V364zM360.571 38.857h50.857v282.286h-50.857v-216c-11.429-16-22.286-24-32.571-24-6.857 0-10.857 4-12 12-.571 1.714-.571 8-.571 20v208h-50.857V97.714c0-20 1.714-33.143 4.571-41.714 4.571-14.286 16.571-21.143 33.143-21.143 18.286 0 37.714 11.429 58.286 34.857V38.857zm245.143 84.571v112.571c0 26.286-1.143 45.143-5.143 56.571-6.286 21.143-20.571 32-40.571 32-18.857 0-36.571-10.286-53.143-30.857v124H456V38.856h50.857v27.429C524 45.142 541.714 34.856 560 34.856c20 0 34.286 10.857 40.571 31.429 4 12 5.143 30.857 5.143 57.143zm193.143 5.715v7.429h-52c0-20.571-.571-32-1.143-34.857-2.857-13.714-10.286-20.571-22.857-20.571-17.714 0-26.286 13.143-26.286 39.429v49.714h102.286v58.857c0 30.286-5.143 52-15.429 66.286-14.857 19.429-34.857 29.143-60.571 29.143-26.286 0-46.286-9.714-61.143-29.143-10.857-14.286-16-36-16-66.286v-98.857c0-30.286 5.714-52.571 16.571-66.286 14.857-19.429 34.857-29.143 61.714-29.143s48 10.286 61.714 30.286c6.286 9.143 10.857 19.429 12 30.857 1.143 5.143 1.143 16.571 1.143 33.143zM451.429 650.857v120c0 26.286-7.429 39.429-24.571 39.429-16.571 0-24.571-13.143-24.571-39.429v-120c0-26.286 8-40 24.571-40 17.143 0 24.571 13.714 24.571 40zm410.857-429.143c0-65.714-.571-136-14.857-200C836.572-23.429 800-56.572 756-61.143c-105.143-12-211.429-12-317.143-12s-212 0-317.143 12c-44 4.571-81.143 37.714-91.429 82.857-14.857 64-14.857 134.286-14.857 200h0c0 66.286.571 136 14.857 200 10.857 45.143 47.429 78.286 92 83.429 104.571 11.429 210.857 11.429 316.571 11.429s212 0 317.143-11.429c44-5.143 81.143-38.286 91.429-83.429 14.857-64 14.857-133.714 14.857-200zM292 950.857h58.286l-69.143-228V568H224v154.857c-5.143 28-16.571 68-34.857 121.143L152 950.857h60.571l40.571-150.286zm211.429-190.286v-100c0-30.286-5.143-53.143-16-67.429-14.286-19.429-34.286-29.143-60.571-29.143-25.714 0-45.714 9.714-60 29.143-10.857 14.857-16 37.143-16 67.429v100c0 30.286 5.143 52.571 16 66.857 14.286 19.429 34.286 29.143 60 29.143 26.286 0 46.286-9.714 60.571-29.143 10.857-14.286 16-36.571 16-66.857zm191.428 92.572V568h-52v31.429c-20.571-24-40-35.429-58.857-35.429-16.571 0-28.571 6.857-33.714 21.143-2.857 8.571-4.571 22.286-4.571 42.857v225.143h52V643.429c0-12 0-18.857.571-20 1.143-8 5.143-12.571 12-12.571 10.286 0 21.143 8 32.571 24.571v217.714h52z"/></svg>