<svg xmlns="http://www.w3.org/2000/svg" width="240" height="135" xmlns:v="https://vecta.io/nano"><path d="M0 80l4 2.8c4 2.9 12 8.5 20 8.4 8-.2 16-6.2 24-8 8-1.9 16 .5 24 1.6 8 1.2 16 1.2 24 .5 8-.6 16-2 24-2s16 1.4 24 2.2 16 1.2 24-.3 16-4.9 24-6.4 16-1.1 24 .5c8 1.7 16 4.7 20 6.2l4 1.5v49h-4-20-24-24-24-24-24-24-24-24H4 0z" fill="#c00"/><path d="M0 95l4-.8c4-.9 12-2.5 20-2s16 3.1 24 3.8 16-.7 24-2.8c8-2.2 16-5.2 24-5.7s16 1.5 24 2.5 16 1 24 1.5 16 1.5 24 2.3l24 2.5c8 1 16 2.4 24 .7s16-6.3 20-8.7l4-2.3v50h-4-20-24-24-24-24-24-24-24-24H4 0z" fill="#b21005"/><path d="M0 96l4-.8c4-.9 12-2.5 20-3.5s16-1.4 24 0c8 1.3 16 4.3 24 6.1 8 1.9 16 2.5 24 1s16-5.1 24-6.6 16-.9 24-.2 16 1.3 24 3.5 16 5.8 24 5.8 16-3.6 24-6.3 16-4.3 20-5.2l4-.8v47h-4-20-24-24-24-24-24-24-24-24H4 0z" fill="#991708"/><path d="M0 101l4-.5c4-.5 12-1.5 20-.7 8 .9 16 3.5 24 3s16-4.1 24-3.8 16 4.7 24 6.5 16 1.2 24 1.2 16 .6 24 1c8 .3 16 .3 24-1.7s16-6 24-7.7c8-1.6 16-1 24-1s16-.6 20-1l4-.3v40h-4-20-24-24-24-24-24-24-24-24H4 0z" fill="#801a0b"/><path d="M0 102l4 .5 20 2.5 24 2.8c8 .9 16 1.5 24 1s16-2.1 24-2.5c8-.3 16 .7 24 2.2s16 3.5 24 3.3c8-.1 16-2.5 24-3s16 .9 24 .2 16-3.3 24-4.2c8-.8 16 .2 20 .7l4 .5v30h-4-20-24-24-24-24-24-24-24-24H4 0z" fill="#681a0c"/><path d="M0 110l4 1.3c4 1.4 12 4 20 5s16 .4 24-1.3 16-4.3 24-4.3 16 2.6 24 3.6 16 .4 24-1.1 16-3.9 24-4c8-.2 16 1.8 24 2.5 8 .6 16 0 24-.7l24-1.8 20-1 4-.2v28h-4-20-24-24-24-24-24-24-24-24H4 0z" fill="#51190c"/><path d="M0 117l4-.5c4-.5 12-1.5 20-.8 8 .6 16 3 24 4.3s16 1.7 24 1.2 16-1.9 24-3.2 16-2.7 24-2.2 16 2.9 24 3.5c8 .7 16-.3 24-1 8-.6 16-1 24-.6 8 .3 16 1.3 24 .8s16-2.5 20-3.5l4-1v22h-4-20-24-24-24-24-24-24-24-24H4 0z" fill="#3a160c"/><path d="M0 123l4-.8c4-.9 12-2.5 20-3s16 .1 24 .8 16 1.3 24 1 16-1.7 24-1.5 16 1.8 24 3 16 1.8 24 2 16-.2 24-1.2 16-2.6 24-2.3 16 2.7 24 2.8c8 .2 16-1.8 20-2.8l4-1v16h-4-20-24-24-24-24-24-24-24-24H4 0z" fill="#25120b"/><path d="M0 126l4 .7c4 .6 12 2 20 1.8s16-1.8 24-2.7a120.3 120.3 0 0 1 24 0c8 .9 16 2.5 24 2.5s16-1.6 24-2.3 16-.3 24 .2l24 1.6c8 .5 16 .9 24 .2s16-2.3 24-3 16-.3 20-.2l4 .2v11h-4-20-24-24-24-24-24-24-24-24H4 0z" fill="#0a0a0a"/></svg>