<svg xmlns="http://www.w3.org/2000/svg" width="960" height="540" xmlns:v="https://vecta.io/nano"><path d="M0 354l14.5-9.2c14.5-9.1 43.5-27.5 72.7-24.5 29.1 3 58.5 27.4 87.6 37.9 29.2 10.5 58.2 7.1 87.2-2.4s58-25.1 87-40c29-14.8 58-28.8 87.2-20.3 29.1 8.5 58.5 39.5 87.6 48.5 29.2 9 58.2-4 87.2-13.3 29-9.4 58-15 87-10.7s58 18.7 87.2 20.2c29.1 1.5 58.5-9.9 87.6-13 29.2-3.2 58.2 1.8 72.7 4.3L960 334v207h-14.5-72.7-87.6H698h-87-87.2-87.6H349h-87-87.2-87.6-72.7H0z" fill="#c00"/><path d="M0 348l14.5 8.5C29 365 58 382 87.2 385.7c29.1 3.6 58.5-6 87.6-10 29.2-4 58.2-2.4 87.2 2.5 29 4.8 58 12.8 87 1.5 29-11.4 58-42 87.2-48.9 29.1-6.8 58.5 10.2 87.6 17.4 29.2 7.1 58.2 4.5 87.2-2.2s58-17.3 87-21 58-.3 87.2 10.3c29.1 10.7 58.5 28.7 87.6 34.4 29.2 5.6 58.2-1 72.7-4.4L960 362v179h-14.5-72.7-87.6H698h-87-87.2-87.6H349h-87-87.2-87.6-72.7H0z" fill="#e05135"/><path d="M0 414l14.5-11.5C29 391 58 368 87.2 362.3c29.1-5.6 58.5 6 87.6 20.4C204 397 233 414 262 422.3c29 8.4 58 8 87-.8s58-26.2 87.2-26.8c29.1-.7 58.5 15.3 87.6 11 29.2-4.4 58.2-29 87.2-35.9 29-6.8 58 4.2 87 10 29 5.9 58 6.5 87.2 1.5 29.1-5 58.5-15.6 87.6-10C902 377 931 399 945.5 410l14.5 11v120h-14.5-72.7-87.6H698h-87-87.2-87.6H349h-87-87.2-87.6-72.7H0z" fill="#f07f65"/><path d="M0 443l14.5-1.8c14.5-1.9 43.5-5.5 72.7-5.2 29.1.3 58.5 4.7 87.6-.8 29.2-5.5 58.2-20.9 87.2-30.4s58-13.1 87-8.3 58 18.2 87.2 24.7c29.1 6.5 58.5 6.1 87.6 3C553 421 582 415 611 417.7c29 2.6 58 14 87 19.1 29 5.2 58 4.2 87.2-2.6 29.1-6.9 58.5-19.5 87.6-23.4 29.2-3.8 58.2 1.2 72.7 3.7L960 417v124h-14.5-72.7-87.6H698h-87-87.2-87.6H349h-87-87.2-87.6-72.7H0z" fill="#fbaa96"/><path d="M0 435l14.5 8.7c14.5 8.6 43.5 26 72.7 27.8 29.1 1.8 58.5-11.8 87.6-22.2C204 439 233 432 262 428.5s58-3.5 87 6.5 58 30 87.2 31.5c29.1 1.5 58.5-15.5 87.6-17.5 29.2-2 58.2 11 87.2 18.8 29 7.9 58 10.5 87 6.4 29-4.2 58-15.2 87.2-18 29.1-2.9 58.5 2.5 87.6-.4C902 453 931 442 945.5 436.5L960 431v110h-14.5-72.7-87.6H698h-87-87.2-87.6H349h-87-87.2-87.6-72.7H0z" fill="#ffd5c9"/><path d="M0 519l14.5-5.8c14.5-5.9 43.5-17.5 72.7-26 29.1-8.5 58.5-13.9 87.6-12.4 29.2 1.5 58.2 9.9 87.2 14.2s58 4.7 87 7.2 58 7.1 87.2 10c29.1 2.8 58.5 3.8 87.6 5.1 29.2 1.4 58.2 3 87.2-3.8s58-22.2 87-23 58 12.8 87.2 18.7c29.1 5.8 58.5 3.8 87.6-1.4 29.2-5.1 58.2-13.5 72.7-17.6L960 480v61h-14.5-72.7-87.6H698h-87-87.2-87.6H349h-87-87.2-87.6-72.7H0z" fill="#fff"/></svg>