<svg xmlns="http://www.w3.org/2000/svg" width="960" height="540" xmlns:v="https://vecta.io/nano"><path d="M0 220l20 4.5C40 229 80 238 120 241s80 0 120-.3c40-.4 80 2 120 10.5s80 23.1 120 31.3 80 9.8 120 1 80-28.2 120-36.7 80-6.1 120 .5c40 6.7 80 17.7 100 23.2l20 5.5v265h-20-100-120-120-120-120-120-120H20 0z" fill="#c00"/><path d="M0 275l20 5.5C40 286 80 297 120 294s80-20 120-29.2c40-9.1 80-10.5 120-8s80 8.9 120 16.4 80 16.1 120 21c40 4.8 80 5.8 120 6.5 40 .6 80 1 120-7.2s80-24.8 100-33.2l20-8.3v289h-20-100-120-120-120-120-120-120H20 0z" fill="#b50f04"/><path d="M0 324l20 2.8c20 2.9 60 8.5 100 7.5s80-8.6 120-15.6 80-13.4 120-18.5c40-5.2 80-9.2 120-10.9 40-1.6 80-1 120 1.4 40 2.3 80 6.3 120 12.1 40 5.9 80 13.5 120 10.5s80-16.6 100-23.5l20-6.8v258h-20-100-120-120-120-120-120-120H20 0z" fill="#9e1607"/><path d="M0 311l20 2.5c20 2.5 60 7.5 100 10.7 40 3.1 80 4.5 120 10.3s80 16.2 120 22.7 80 9.1 120 9.3 80-2.2 120-6.3c40-4.2 80-10.2 120-17.2l120-20.7c40-5.6 80-9 100-10.6l20-1.7v231h-20-100-120-120-120-120-120-120H20 0z" fill="#88190a"/><path d="M0 389l20-2c20-2 60-6 100-14s80-20 120-25.7c40-5.6 80-5 120-3.8s80 2.8 120 2.3 80-3.1 120 4.2 80 24.7 120 31.2 80 2.1 120 .3 80-1.2 100-.8l20 .3v160h-20-100-120-120-120-120-120-120H20 0z" fill="#731a0c"/><path d="M0 385l20 2.5 100 12c40 4.5 80 8.5 120 4.8 40-3.6 80-15 120-13.8s80 14.8 120 19.3 80-.1 120-7.8 80-18.3 120-19 80 8.7 120 15.8c40 7.2 80 12.2 100 14.7l20 2.5v125h-20-100-120-120-120-120-120-120H20 0z" fill="#5e1a0c"/><path d="M0 413l20 4.8c20 4.9 60 14.5 100 13s80-14.1 120-17.5c40-3.3 80 2.7 120 5.5 40 2.9 80 2.5 120 5.7s80 9.8 120 13.3 80 3.9 120 3c40-.8 80-2.8 120-5.3l100-7 20-1.5v114h-20-100-120-120-120-120-120-120H20 0z" fill="#49180c"/><path d="M0 444l20-1.8c20-1.9 60-5.5 100-6.4 40-.8 80 1.2 120 6.4 40 5.1 80 13.5 120 13.6 40 .2 80-7.8 120-8.5 40-.6 80 6 120 7.9 40 1.8 80-1.2 120-.9 40 .4 80 4 120 5.9 40 1.8 80 1.8 100 1.8h20v79h-20-100-120-120-120-120-120-120H20 0z" fill="#35150c"/><path d="M0 489l20-2.3c20-2.4 60-7 100-8.5s80 .1 120 1.1 80 1.4 120 .7l120-2.2c40 .2 80 2.2 120 4.9 40 2.6 80 6 120 3.5s80-10.9 120-11.7 80 5.8 100 9.2l20 3.3v54h-20-100-120-120-120-120-120-120H20 0z" fill="#22120b"/><path d="M0 501l20 2 100 8.8c40 2.9 80 4.5 120 5.4 40 .8 80 .8 120-2 40-2.9 80-8.5 120-9.9 40-1.3 80 1.7 120 3.7s80 3 120 .2c40-2.9 80-9.5 120-11.4 40-1.8 80 1.2 100 2.7l20 1.5v39h-20-100-120-120-120-120-120-120H20 0z" fill="#0a0a0a"/></svg>